<?xml version="1.0" encoding="UTF-8" standalone="no"?>
<!-- Generated by boardgen for the TinyGo Playground simulator. -->
<svg xmlns="http://www.w3.org/2000/svg" version="1.1" viewBox="0 -1.3 20.44 19.08" width="20.44mm" height="19.08mm">

  <!-- PCB -->
  <rect x="0" y="0" width="20.44" height="17.78" fill="#006837"/>

  <!-- USB port -->
  <rect x="6.22" y="-1.3" width="8" height="6" fill="#ccc"/>

  <!-- pads on the left -->
  <g transform="translate(0, 0)" fill="transparent">
    <g data-pin="GP6" transform="translate(0, 0)">
      <path transform="translate(0, 0.47)" d="M 0,0 V 1.6 H 1.61 A 0.8 0.8 0 0 0 1.61 0 Z" fill="#d4af37"/>
      <rect width="3.22" height="2.54" class="area"/>
    </g>
    <g data-pin="GP7" transform="translate(0, 2.54)">
      <path transform="translate(0, 0.47)" d="M 0,0 V 1.6 H 1.61 A 0.8 0.8 0 0 0 1.61 0 Z" fill="#d4af37"/>
      <rect width="3.22" height="2.54" class="area"/>
    </g>
    <g data-pin="GP8" transform="translate(0, 5.08)">
      <path transform="translate(0, 0.47)" d="M 0,0 V 1.6 H 1.61 A 0.8 0.8 0 0 0 1.61 0 Z" fill="#d4af37"/>
      <rect width="3.22" height="2.54" class="area"/>
    </g>
    <g data-pin="GP9" transform="translate(0, 7.62)">
      <path transform="translate(0, 0.47)" d="M 0,0 V 1.6 H 1.61 A 0.8 0.8 0 0 0 1.61 0 Z" fill="#d4af37"/>
      <rect width="3.22" height="2.54" class="area"/>
    </g>
    <g data-pin="GP10" transform="translate(0, 10.16)">
      <path transform="translate(0, 0.47)" d="M 0,0 V 1.6 H 1.61 A 0.8 0.8 0 0 0 1.61 0 Z" fill="#d4af37"/>
      <rect width="3.22" height="2.54" class="area"/>
    </g>
    <g data-pin="GND#2" data-title="GND" transform="translate(0, 12.7)">
      <path transform="translate(0, 0.47)" d="M 0,0 V 1.6 H 1.61 A 0.8 0.8 0 0 0 1.61 0 Z" fill="#d4af37"/>
      <rect width="3.22" height="2.54" class="area"/>
    </g>
    <g data-pin="GP11" transform="translate(0, 15.24)">
      <path transform="translate(0, 0.47)" d="M 0,0 V 1.6 H 1.61 A 0.8 0.8 0 0 0 1.61 0 Z" fill="#d4af37"/>
      <rect width="3.22" height="2.54" class="area"/>
    </g>
  </g>

  <!-- pads on the right -->
  <g transform="translate(17.22, 0)" fill="transparent">
    <g data-pin="GP0" transform="translate(0, 0)">
      <path transform="translate(3.22, 0.47)" d="M 0,0 V 1.6 H -1.61 A 0.8 0.8 0 0 1 -1.61 0 Z" fill="#d4af37"/>
      <rect width="3.22" height="2.54" class="area"/>
    </g>
    <g data-pin="GP1" transform="translate(0, 2.54)">
      <path transform="translate(3.22, 0.47)" d="M 0,0 V 1.6 H -1.61 A 0.8 0.8 0 0 1 -1.61 0 Z" fill="#d4af37"/>
      <rect width="3.22" height="2.54" class="area"/>
    </g>
    <g data-pin="GP2" transform="translate(0, 5.08)">
      <path transform="translate(3.22, 0.47)" d="M 0,0 V 1.6 H -1.61 A 0.8 0.8 0 0 1 -1.61 0 Z" fill="#d4af37"/>
      <rect width="3.22" height="2.54" class="area"/>
    </g>
    <g data-pin="GP3" transform="translate(0, 7.62)">
      <path transform="translate(3.22, 0.47)" d="M 0,0 V 1.6 H -1.61 A 0.8 0.8 0 0 1 -1.61 0 Z" fill="#d4af37"/>
      <rect width="3.22" height="2.54" class="area"/>
    </g>
    <g data-pin="GP4" transform="translate(0, 10.16)">
      <path transform="translate(3.22, 0.47)" d="M 0,0 V 1.6 H -1.61 A 0.8 0.8 0 0 1 -1.61 0 Z" fill="#d4af37"/>
      <rect width="3.22" height="2.54" class="area"/>
    </g>
    <g data-pin="GND#1" data-title="GND" transform="translate(0, 12.7)">
      <path transform="translate(3.22, 0.47)" d="M 0,0 V 1.6 H -1.61 A 0.8 0.8 0 0 1 -1.61 0 Z" fill="#d4af37"/>
      <rect width="3.22" height="2.54" class="area"/>
    </g>
    <g data-pin="GP5" transform="translate(0, 15.24)">
      <path transform="translate(3.22, 0.47)" d="M 0,0 V 1.6 H -1.61 A 0.8 0.8 0 0 1 -1.61 0 Z" fill="#d4af37"/>
      <rect width="3.22" height="2.54" class="area"/>
    </g>
  </g>
</svg>
